{
  "accessors": [
    {
      "bufferView": 2,
      "componentType": 5126,
      "count": 420,
      "max": [
        1.9840199947357178,
        0.923740029335022,
        0.8774700164794922
      ],
      "min": [
        -1.9840199947357178,
        -0.923740029335022,
        -0.366890013217926
      ],
      "type": "VEC3"
    },
    {
      "bufferView": 2,
      "byteOffset": 5040,
      "componentType": 5126,
      "count": 420,
      "max": [
        1.0,
        1.0,
        1.0
      ],
      "min": [
        -1.0,
        -1.0,
        -1.0
      ],
      "type": "VEC3"
    },
    {
      "bufferView": 1,
      "componentType": 5126,
      "count": 420,
      "max": [
        0.9614999890327454,
        0.977150022983551
      ],
      "min": [
        0.032269999384880066,
        0.036400001496076584
      ],
      "type": "VEC2"
    },
    {
      "bufferView": 0,
      "componentType": 5125,
      "count": 732,
      "type": "SCALAR"
    },
    {
      "bufferView": 2,
      "byteOffset": 10080,
      "componentType": 5126,
      "count": 48,
      "max": [
        0.3116700053215027,
        0.1273300051689148,
        0.3116700053215027
      ],
      "min": [
        -0.3116700053215027,
        -0.1273300051689148,
        -0.3116700053215027
      ],
      "type": "VEC3"
    },
    {
      "bufferView": 2,
      "byteOffset": 10656,
      "componentType": 5126,
      "count": 48,
      "max": [
        1.0,
        1.0,
        1.0
      ],
      "min": [
        -1.0,
        -1.0,
        -1.0
      ],
      "type": "VEC3"
    },
    {
      "bufferView": 1,
      "byteOffset": 3360,
      "componentType": 5126,
      "count": 48,
      "max": [
        0.9433599710464478,
        0.5527300238609314
      ],
      "min": [
        0.7695299983024597,
        0.3144499957561493
      ],
      "type": "VEC2"
    },
    {
      "bufferView": 0,
      "byteOffset": 2928,
      "componentType": 5125,
      "count": 84,
      "type": "SCALAR"
    },
    {
      "bufferView": 2,
      "byteOffset": 11232,
      "componentType": 5126,
      "count": 48,
      "max": [
        0.3116700053215027,
        0.1273300051689148,
        0.3116700053215027
      ],
      "min": [
        -0.3116700053215027,
        -0.1273300051689148,
        -0.3116700053215027
      ],
      "type": "VEC3"
    },
    {
      "bufferView": 2,
      "byteOffset": 11808,
      "componentType": 5126,
      "count": 48,
      "max": [
        1.0,
        1.0,
        1.0
      ],
      "min": [
        -1.0,
        -1.0,
        -1.0
      ],
      "type": "VEC3"
    },
    {
      "bufferView": 1,
      "byteOffset": 3744,
      "componentType": 5126,
      "count": 48,
      "max": [
        0.9433599710464478,
        0.5527300238609314
      ],
      "min": [
        0.7695299983024597,
        0.3144499957561493
      ],
      "type": "VEC2"
    },
    {
      "bufferView": 0,
      "byteOffset": 3264,
      "componentType": 5125,
      "count": 84,
      "type": "SCALAR"
    },
    {
      "bufferView": 2,
      "byteOffset": 12384,
      "componentType": 5126,
      "count": 48,
      "max": [
        0.3116700053215027,
        0.1273300051689148,
        0.3116700053215027
      ],
      "min": [
        -0.3116700053215027,
        -0.1273300051689148,
        -0.3116700053215027
      ],
      "type": "VEC3"
    },
    {
      "bufferView": 2,
      "byteOffset": 12960,
      "componentType": 5126,
      "count": 48,
      "max": [
        1.0,
        1.0,
        1.0
      ],
      "min": [
        -1.0,
        -1.0,
        -1.0
      ],
      "type": "VEC3"
    },
    {
      "bufferView": 1,
      "byteOffset": 4128,
      "componentType": 5126,
      "count": 48,
      "max": [
        0.9433599710464478,
        0.5527300238609314
      ],
      "min": [
        0.7695299983024597,
        0.3144499957561493
      ],
      "type": "VEC2"
    },
    {
      "bufferView": 0,
      "byteOffset": 3600,
      "componentType": 5125,
      "count": 84,
      "type": "SCALAR"
    },
    {
      "bufferView": 2,
      "byteOffset": 13536,
      "componentType": 5126,
      "count": 48,
      "max": [
        0.3116700053215027,
        0.1273300051689148,
        0.3116700053215027
      ],
      "min": [
        -0.3116700053215027,
        -0.1273300051689148,
        -0.3116700053215027
      ],
      "type": "VEC3"
    },
    {
      "bufferView": 2,
      "byteOffset": 14112,
      "componentType": 5126,
      "count": 48,
      "max": [
        1.0,
        1.0,
        1.0
      ],
      "min": [
        -1.0,
        -1.0,
        -1.0
      ],
      "type": "VEC3"
    },
    {
      "bufferView": 1,
      "byteOffset": 4512,
      "componentType": 5126,
      "count": 48,
      "max": [
        0.9433599710464478,
        0.5527300238609314
      ],
      "min": [
        0.7695299983024597,
        0.3144499957561493
      ],
      "type": "VEC2"
    },
    {
      "bufferView": 0,
      "byteOffset": 3936,
      "componentType": 5125,
      "count": 84,
      "type": "SCALAR"
    },
    {
      "bufferView": 2,
      "byteOffset": 14688,
      "componentType": 5126,
      "count": 26,
      "max": [
        0.24453000724315643,
        0.6091499924659729,
        0.07367999851703644
      ],
      "min": [
        -0.24453000724315643,
        -0.6091499924659729,
        -0.07367999851703644
      ],
      "type": "VEC3"
    },
    {
      "bufferView": 2,
      "byteOffset": 15000,
      "componentType": 5126,
      "count": 26,
      "max": [
        1.0,
        1.0,
        1.0
      ],
      "min": [
        -1.0,
        -1.0,
        0.0
      ],
      "type": "VEC3"
    },
    {
      "bufferView": 1,
      "byteOffset": 4896,
      "componentType": 5126,
      "count": 26,
      "max": [
        0.9296900033950806,
        0.271479994058609
      ],
      "min": [
        0.8183599710464478,
        0.052730001509189606
      ],
      "type": "VEC2"
    },
    {
      "bufferView": 0,
      "byteOffset": 4272,
      "componentType": 5125,
      "count": 48,
      "type": "SCALAR"
    },
    {
      "bufferView": 2,
      "byteOffset": 15312,
      "componentType": 5126,
      "count": 48,
      "max": [
        0.7531099915504456,
        1.0410300493240356,
        0.4498699903488159
      ],
      "min": [
        0.6528900265693665,
        -1.0410300493240356,
        0.3169899880886078
      ],
      "type": "VEC3"
    },
    {
      "bufferView": 2,
      "byteOffset": 15888,
      "componentType": 5126,
      "count": 48,
      "max": [
        0.9601168036460876,
        0.9601168036460876,
        1.0
      ],
      "min": [
        -0.9601168036460876,
        -0.9601168036460876,
        -1.0
      ],
      "type": "VEC3"
    },
    {
      "bufferView": 1,
      "byteOffset": 5104,
      "componentType": 5126,
      "count": 48,
      "max": [
        0.5610899925231934,
        0.6419399976730347
      ],
      "min": [
        0.48809000849723816,
        0.587440013885498
      ],
      "type": "VEC2"
    },
    {
      "bufferView": 0,
      "byteOffset": 4464,
      "componentType": 5125,
      "count": 72,
      "type": "SCALAR"
    }
  ],
  "asset": {
    "extras": {
      "author": "Wikiti (https://sketchfab.com/wikiti)",
      "license": "CC-BY-4.0 (http://creativecommons.org/licenses/by/4.0/)",
      "source": "https://sketchfab.com/3d-models/pixel-police-car-f750782961284b0a9e3748a97539b303",
      "title": "Pixel Police Car"
    },
    "generator": "Sketchfab-12.67.0",
    "version": "2.0"
  },
  "bufferViews": [
    {
      "buffer": 0,
      "byteLength": 4752,
      "name": "floatBufferViews",
      "target": 34963
    },
    {
      "buffer": 0,
      "byteLength": 5488,
      "byteOffset": 4752,
      "byteStride": 8,
      "name": "floatBufferViews",
      "target": 34962
    },
    {
      "buffer": 0,
      "byteLength": 16464,
      "byteOffset": 10240,
      "byteStride": 12,
      "name": "floatBufferViews",
      "target": 34962
    }
  ],
  "buffers": [
    {
      "byteLength": 26704,
      "uri": "scene.bin"
    }
  ],
  "extensionsUsed": [
    "KHR_materials_unlit"
  ],
  "images": [
    {
      "uri": "textures/material_baseColor.png"
    }
  ],
  "materials": [
    {
      "extensions": {
        "KHR_materials_unlit": {}
      },
      "name": "material",
      "pbrMetallicRoughness": {
        "baseColorTexture": {
          "index": 0
        },
        "metallicFactor": 0.0
      }
    }
  ],
  "meshes": [
    {
      "name": "Chassis_0",
      "primitives": [
        {
          "attributes": {
            "NORMAL": 1,
            "POSITION": 0,
            "TEXCOORD_0": 2
          },
          "indices": 3,
          "material": 0,
          "mode": 4
        }
      ]
    },
    {
      "name": "WheelFrontLeft_0",
      "primitives": [
        {
          "attributes": {
            "NORMAL": 5,
            "POSITION": 4,
            "TEXCOORD_0": 6
          },
          "indices": 7,
          "material": 0,
          "mode": 4
        }
      ]
    },
    {
      "name": "WheelBackLeft_0",
      "primitives": [
        {
          "attributes": {
            "NORMAL": 9,
            "POSITION": 8,
            "TEXCOORD_0": 10
          },
          "indices": 11,
          "material": 0,
          "mode": 4
        }
      ]
    },
    {
      "name": "WheelBackRight_0",
      "primitives": [
        {
          "attributes": {
            "NORMAL": 13,
            "POSITION": 12,
            "TEXCOORD_0": 14
          },
          "indices": 15,
          "material": 0,
          "mode": 4
        }
      ]
    },
    {
      "name": "WheelFrontRight_0",
      "primitives": [
        {
          "attributes": {
            "NORMAL": 17,
            "POSITION": 16,
            "TEXCOORD_0": 18
          },
          "indices": 19,
          "material": 0,
          "mode": 4
        }
      ]
    },
    {
      "name": "Siren_0",
      "primitives": [
        {
          "attributes": {
            "NORMAL": 21,
            "POSITION": 20,
            "TEXCOORD_0": 22
          },
          "indices": 23,
          "material": 0,
          "mode": 4
        }
      ]
    },
    {
      "name": "Mirrors_0",
      "primitives": [
        {
          "attributes": {
            "NORMAL": 25,
            "POSITION": 24,
            "TEXCOORD_0": 26
          },
          "indices": 27,
          "material": 0,
          "mode": 4
        }
      ]
    }
  ],
  "nodes": [
    {
      "children": [
        1
      ],
      "matrix": [
        0.9501469731330872,
        0.0,
        0.0,
        0.0,
        0.0,
        2.1097500927005067e-16,
        -0.9501469731330872,
        0.0,
        0.0,
        0.9501469731330872,
        2.1097500927005067e-16,
        0.0,
        0.0,
        0.0,
        0.0,
        1.0
      ],
      "name": "Sketchfab_model"
    },
    {
      "children": [
        2
      ],
      "name": "Root"
    },
    {
      "children": [
        3,
        4,
        6,
        8,
        10,
        12,
        14
      ],
      "name": "Chassis"
    },
    {
      "mesh": 0,
      "name": "Chassis_0"
    },
    {
      "children": [
        5
      ],
      "matrix": [
        1.0,
        0.0,
        0.0,
        0.0,
        0.0,
        1.0,
        0.0,
        0.0,
        0.0,
        0.0,
        1.0,
        0.0,
        1.19239,
        0.7904599999999999,
        -0.29558000000000006,
        1.0
      ],
      "name": "WheelFrontLeft"
    },
    {
      "mesh": 1,
      "name": "WheelFrontLeft_0"
    },
    {
      "children": [
        7
      ],
      "matrix": [
        1.0,
        0.0,
        0.0,
        0.0,
        0.0,
        1.0,
        0.0,
        0.0,
        0.0,
        0.0,
        1.0,
        0.0,
        -1.2791899999999998,
        0.7904599999999999,
        -0.29558000000000006,
        1.0
      ],
      "name": "WheelBackLeft"
    },
    {
      "mesh": 2,
      "name": "WheelBackLeft_0"
    },
    {
      "children": [
        9
      ],
      "matrix": [
        1.0,
        0.0,
        0.0,
        0.0,
        0.0,
        1.0,
        0.0,
        0.0,
        0.0,
        0.0,
        1.0,
        0.0,
        -1.2791899999999998,
        -0.7904599999999999,
        -0.29558000000000006,
        1.0
      ],
      "name": "WheelBackRight"
    },
    {
      "mesh": 3,
      "name": "WheelBackRight_0"
    },
    {
      "children": [
        11
      ],
      "matrix": [
        1.0,
        0.0,
        0.0,
        0.0,
        0.0,
        1.0,
        0.0,
        0.0,
        0.0,
        0.0,
        1.0,
        0.0,
        1.19239,
        -0.7904599999999999,
        -0.29558000000000006,
        1.0
      ],
      "name": "WheelFrontRight"
    },
    {
      "mesh": 4,
      "name": "WheelFrontRight_0"
    },
    {
      "children": [
        13
      ],
      "matrix": [
        1.0,
        0.0,
        0.0,
        0.0,
        0.0,
        1.0,
        0.0,
        0.0,
        0.0,
        0.0,
        1.0,
        0.0,
        -0.04309000000000001,
        0.0,
        0.9550400000000001,
        1.0
      ],
      "name": "Siren"
    },
    {
      "mesh": 5,
      "name": "Siren_0"
    },
    {
      "children": [
        15
      ],
      "name": "Mirrors"
    },
    {
      "mesh": 6,
      "name": "Mirrors_0"
    }
  ],
  "samplers": [
    {
      "magFilter": 9728,
      "minFilter": 9728,
      "wrapS": 10497,
      "wrapT": 10497
    }
  ],
  "scene": 0,
  "scenes": [
    {
      "name": "Sketchfab_Scene",
      "nodes": [
        0
      ]
    }
  ],
  "textures": [
    {
      "sampler": 0,
      "source": 0
    }
  ]
}
